<svg width="40" height="40" viewBox="0 0 40 40" fill="none" xmlns="http://www.w3.org/2000/svg">
  <defs>
    <linearGradient id="logoGradient" x1="0%" y1="0%" x2="100%" y2="100%">
      <stop offset="0%" stop-color="#8B5CF6"/>
      <stop offset="100%" stop-color="#D946EF"/>
    </linearGradient>
    <linearGradient id="coinGradient" x1="0%" y1="0%" x2="100%" y2="100%">
      <stop offset="0%" stop-color="#F59E0B"/>
      <stop offset="100%" stop-color="#F97316"/>
    </linearGradient>
  </defs>
  
  <!-- 背景圆角矩形 -->
  <rect width="40" height="40" rx="10" fill="url(#logoGradient)"/>
  
  <!-- 火箭/飞行元素 -->
  <path d="M28 12L20 28L16 20L28 12Z" fill="white" fill-opacity="0.9"/>
  <path d="M16 20L12 24L20 28L16 20Z" fill="white" fill-opacity="0.6"/>
  
  <!-- 美金符号 -->
  <circle cx="26" cy="26" r="7" fill="url(#coinGradient)"/>
  <path d="M26 22V30M24 23.5H28C28 23.5 29 24 29 25C29 26 27.5 26.5 26 26.5C24.5 26.5 23 27 23 28C23 29 24 29.5 26 29.5H28" stroke="white" stroke-width="1.5" stroke-linecap="round" stroke-linejoin="round"/>
</svg>
